<svg xmlns="http://www.w3.org/2000/svg" width="400" height="300" viewBox="0 0 400 300">
  <defs>
    <filter id="agua1" x="-20%" y="-20%" width="140%" height="140%">
      <feTurbulence type="fractalNoise" baseFrequency="0.024" numOctaves="4" seed="62" result="n"/>
      <feDisplacementMap in="SourceGraphic" in2="n" scale="17" xChannelSelector="R" yChannelSelector="G"/>
      <feGaussianBlur stdDeviation="0.9"/>
    </filter>
    <filter id="agua2" x="-20%" y="-20%" width="140%" height="140%">
      <feTurbulence type="fractalNoise" baseFrequency="0.035" numOctaves="3" seed="73" result="n"/>
      <feDisplacementMap in="SourceGraphic" in2="n" scale="13" xChannelSelector="R" yChannelSelector="G"/>
      <feGaussianBlur stdDeviation="1.3"/>
    </filter>
    <filter id="pluma" x="-12%" y="-12%" width="124%" height="124%">
      <feTurbulence type="fractalNoise" baseFrequency="0.04" numOctaves="2" seed="69" result="n"/>
      <feDisplacementMap in="SourceGraphic" in2="n" scale="4" xChannelSelector="R" yChannelSelector="G"/>
    </filter>
    <filter id="grano" x="0" y="0" width="100%" height="100%">
      <feTurbulence type="fractalNoise" baseFrequency="0.85" numOctaves="4" stitchTiles="stitch"/>
      <feColorMatrix type="saturate" values="0"/>
    </filter>
  </defs>
  <rect width="400" height="300" fill="#FDF8F2"/>
  <!-- El dibujo va agrandado: en el móvil la tarjeta recorta un cuadrado pequeño. -->
  <g transform="translate(200 150) scale(1.3) translate(-200 -150)">
  <path d="M 104 150 q 0 -12 12 -12 h 168 q 12 0 12 12 v 58 q 0 12 -12 12 h -168 q -12 0 -12 -12 Z" fill="#AFA79D" opacity="0.3" filter="url(#agua2)"/>
  <path d="M 116 152 h 168 v 54 h -168 Z" fill="#C85D48" opacity="0.45" filter="url(#agua1)"/>
  <ellipse cx="141.1" cy="169.2" rx="16.0" ry="9.0" fill="#E8C57E" opacity="0.6" filter="url(#agua2)"/>
  <ellipse cx="169.5" cy="187.1" rx="16.0" ry="9.0" fill="#E8C57E" opacity="0.6" filter="url(#agua2)"/>
  <ellipse cx="216.1" cy="193.8" rx="16.0" ry="9.0" fill="#E8C57E" opacity="0.6" filter="url(#agua2)"/>
  <ellipse cx="268.2" cy="173.8" rx="16.0" ry="9.0" fill="#E8C57E" opacity="0.6" filter="url(#agua2)"/>
  <ellipse cx="201.8" cy="179.4" rx="16.0" ry="9.0" fill="#E8C57E" opacity="0.6" filter="url(#agua2)"/>
  <ellipse cx="192.5" cy="177.6" rx="16.0" ry="9.0" fill="#E8C57E" opacity="0.6" filter="url(#agua2)"/>
  <ellipse cx="262.5" cy="181.1" rx="16.0" ry="9.0" fill="#E8C57E" opacity="0.6" filter="url(#agua2)"/>
  <ellipse cx="242.4" cy="167.6" rx="16.0" ry="9.0" fill="#E8C57E" opacity="0.6" filter="url(#agua2)"/>
  <ellipse cx="149.8" cy="179.7" rx="8.0" ry="5.0" fill="#D9A441" opacity="0.55" filter="url(#agua2)"/>
  <ellipse cx="145.7" cy="177.6" rx="8.0" ry="5.0" fill="#D9A441" opacity="0.55" filter="url(#agua2)"/>
  <ellipse cx="182.7" cy="161.2" rx="8.0" ry="5.0" fill="#D9A441" opacity="0.55" filter="url(#agua2)"/>
  <ellipse cx="258.0" cy="189.8" rx="8.0" ry="5.0" fill="#D9A441" opacity="0.55" filter="url(#agua2)"/>
  <ellipse cx="234.6" cy="187.4" rx="8.0" ry="5.0" fill="#D9A441" opacity="0.55" filter="url(#agua2)"/>
  <path d="M 104 150 q 0 -12 12 -12 h 168 q 12 0 12 12 v 58 q 0 12 -12 12 h -168 q -12 0 -12 -12 Z" fill="none" stroke="#5A4A42" stroke-width="2.2" stroke-linecap="round" stroke-linejoin="round" opacity="0.42" filter="url(#pluma)"/>
  <path d="M 104 168 h -16 M 296 168 h 16" fill="none" stroke="#5A4A42" stroke-width="2.6" stroke-linecap="round" stroke-linejoin="round" opacity="0.42" filter="url(#pluma)"/>
  </g>
  <rect width="400" height="300" filter="url(#grano)" opacity="0.07" style="mix-blend-mode: multiply"/>
</svg>
