<svg xmlns="http://www.w3.org/2000/svg" width="400" height="300" viewBox="0 0 400 300">
  <defs>
    <filter id="agua" x="-20%" y="-20%" width="140%" height="140%">
      <feTurbulence type="fractalNoise" baseFrequency="0.022" numOctaves="4" seed="18" result="n"/>
      <feDisplacementMap in="SourceGraphic" in2="n" scale="26" xChannelSelector="R" yChannelSelector="G"/>
      <feGaussianBlur stdDeviation="1.6"/>
    </filter>
    <filter id="pluma" x="-10%" y="-10%" width="120%" height="120%">
      <feTurbulence type="fractalNoise" baseFrequency="0.035" numOctaves="3" seed="23" result="n"/>
      <feDisplacementMap in="SourceGraphic" in2="n" scale="7" xChannelSelector="R" yChannelSelector="G"/>
    </filter>
    <filter id="grano" x="0" y="0" width="100%" height="100%">
      <feTurbulence type="fractalNoise" baseFrequency="0.85" numOctaves="4" stitchTiles="stitch"/>
      <feColorMatrix type="saturate" values="0"/>
    </filter>
  </defs>
  <rect width="400" height="300" fill="#FDF8F2"/>
  <g filter="url(#agua)" opacity="0.7"><g transform="translate(107 58) scale(8.1)"><path fill="#F0C77E" stroke="none" d="M3.5 5.5c5.5-2.4 11.5-2.4 17 0L12 21.5Z"/><path fill="#EBA08D" stroke="none" d="M5 8c4.5-1.8 9.5-1.8 14 0L12 19.5Z"/><circle fill="#C85D48" stroke="none" cx="10" cy="11" r="1.2"/><circle fill="#C85D48" stroke="none" cx="14" cy="13" r="1.2"/><circle fill="#C85D48" stroke="none" cx="12" cy="16.5" r="1"/></g></g>
  <g filter="url(#agua)" opacity="0.3"><g transform="translate(100 50) scale(8)"><path fill="#F0C77E" stroke="none" d="M3.5 5.5c5.5-2.4 11.5-2.4 17 0L12 21.5Z"/><path fill="#EBA08D" stroke="none" d="M5 8c4.5-1.8 9.5-1.8 14 0L12 19.5Z"/><circle fill="#C85D48" stroke="none" cx="10" cy="11" r="1.2"/><circle fill="#C85D48" stroke="none" cx="14" cy="13" r="1.2"/><circle fill="#C85D48" stroke="none" cx="12" cy="16.5" r="1"/></g></g>
  <g filter="url(#pluma)"><g transform="translate(104 54) scale(8)" fill="none" stroke="#5A4A42" stroke-width="0.62" stroke-linecap="round" stroke-linejoin="round" opacity="0.85"><path d="M3.5 5.5c5.5-2.4 11.5-2.4 17 0L12 21.5Z"/><path d="M5 8c4.5-1.8 9.5-1.8 14 0"/></g></g>
  <rect width="400" height="300" filter="url(#grano)" opacity="0.06" style="mix-blend-mode: multiply"/>
</svg>
