<svg xmlns="http://www.w3.org/2000/svg" width="400" height="300" viewBox="0 0 400 300">
  <defs>
    <filter id="agua" x="-20%" y="-20%" width="140%" height="140%">
      <feTurbulence type="fractalNoise" baseFrequency="0.022" numOctaves="4" seed="28" result="n"/>
      <feDisplacementMap in="SourceGraphic" in2="n" scale="26" xChannelSelector="R" yChannelSelector="G"/>
      <feGaussianBlur stdDeviation="1.6"/>
    </filter>
    <filter id="pluma" x="-10%" y="-10%" width="120%" height="120%">
      <feTurbulence type="fractalNoise" baseFrequency="0.035" numOctaves="3" seed="33" result="n"/>
      <feDisplacementMap in="SourceGraphic" in2="n" scale="7" xChannelSelector="R" yChannelSelector="G"/>
    </filter>
    <filter id="grano" x="0" y="0" width="100%" height="100%">
      <feTurbulence type="fractalNoise" baseFrequency="0.85" numOctaves="4" stitchTiles="stitch"/>
      <feColorMatrix type="saturate" values="0"/>
    </filter>
  </defs>
  <rect width="400" height="300" fill="#FDF8F2"/>
  <g filter="url(#agua)" opacity="0.7"><g transform="translate(107 58) scale(8.1)"><path fill="#C98A74" stroke="none" d="M3 10.5v3.2c-.2 1.8 1.4 3.2 4.4 3.8 3.3.7 7.8.5 10.6-.6 2.6-1 3.6-2.8 2.9-4.4v-3L12 14Z"/><path fill="#D98E7C" stroke="none" d="M3 10.5c.2-1.8 2.2-3.2 5.5-3.6 2.4-.3 3.8.4 6.2.3 2.6-.1 5.4.4 6.2 2.1.7 1.6-.3 3.4-2.9 4.4-2.8 1.1-7.3 1.3-10.6.6C4.4 13.7 2.8 12.3 3 10.5Z"/><path fill="#F6DBA0" stroke="none" d="M15.8 7.2c2.2 0 4.2.6 4.9 2.1.5 1.1.1 2.3-1.1 3.2l-1-.7c.8-.6 1-1.3.7-2-.5-1-2-1.5-3.6-1.6Z"/></g></g>
  <g filter="url(#agua)" opacity="0.3"><g transform="translate(100 50) scale(8)"><path fill="#C98A74" stroke="none" d="M3 10.5v3.2c-.2 1.8 1.4 3.2 4.4 3.8 3.3.7 7.8.5 10.6-.6 2.6-1 3.6-2.8 2.9-4.4v-3L12 14Z"/><path fill="#D98E7C" stroke="none" d="M3 10.5c.2-1.8 2.2-3.2 5.5-3.6 2.4-.3 3.8.4 6.2.3 2.6-.1 5.4.4 6.2 2.1.7 1.6-.3 3.4-2.9 4.4-2.8 1.1-7.3 1.3-10.6.6C4.4 13.7 2.8 12.3 3 10.5Z"/><path fill="#F6DBA0" stroke="none" d="M15.8 7.2c2.2 0 4.2.6 4.9 2.1.5 1.1.1 2.3-1.1 3.2l-1-.7c.8-.6 1-1.3.7-2-.5-1-2-1.5-3.6-1.6Z"/></g></g>
  <g filter="url(#pluma)"><g transform="translate(104 54) scale(8)" fill="none" stroke="#5A4A42" stroke-width="0.62" stroke-linecap="round" stroke-linejoin="round" opacity="0.85"><path d="M3 10.5c.2-1.8 2.2-3.2 5.5-3.6 2.4-.3 3.8.4 6.2.3 2.6-.1 5.4.4 6.2 2.1.7 1.6-.3 3.4-2.9 4.4-2.8 1.1-7.3 1.3-10.6.6C4.4 13.7 2.8 12.3 3 10.5Z"/><path d="M3 10.5v3.2c-.2 1.8 1.4 3.2 4.4 3.8 3.3.7 7.8.5 10.6-.6 2.6-1 3.6-2.8 2.9-4.4v-3"/><path d="M7.5 11.8l3-3.8M10.8 12.6l3.4-4.4M14.4 12.4l2.8-3.6"/></g></g>
  <rect width="400" height="300" filter="url(#grano)" opacity="0.06" style="mix-blend-mode: multiply"/>
</svg>
